<?xml version="1.0" standalone="no"?>
<!DOCTYPE svg PUBLIC "-//W3C//DTD SVG 20010904//EN"
 "http://www.w3.org/TR/2001/REC-SVG-20010904/DTD/svg10.dtd">
<svg version="1.0" xmlns="http://www.w3.org/2000/svg"
 width="502.000000pt" height="502.000000pt" viewBox="0 0 502.000000 502.000000"
 preserveAspectRatio="xMidYMid meet">
<metadata>
Created by potrace 1.11, written by Peter Selinger 2001-2013
</metadata>
<g transform="translate(0.000000,502.000000) scale(0.100000,-0.100000)"
fill="#000000" stroke="none">
<path d="M2146 4915 c-6 -5 -24 -10 -39 -9 -15 1 -30 -3 -33 -7 -3 -5 -27 -9
-54 -9 -27 0 -52 -4 -55 -10 -3 -5 -17 -10 -30 -10 -13 0 -26 -4 -29 -9 -7
-10 -52 -20 -114 -25 -24 -3 -53 -13 -65 -23 -13 -11 -33 -18 -49 -17 -15 2
-29 -3 -32 -11 -3 -8 -12 -12 -21 -9 -8 3 -15 2 -15 -4 0 -11 -30 -23 -74 -28
-16 -2 -38 -13 -49 -25 -10 -11 -25 -18 -32 -15 -7 2 -21 -3 -32 -12 -26 -23
-60 -42 -75 -42 -7 0 -19 -9 -26 -20 -7 -11 -23 -20 -37 -20 -14 0 -30 -9 -37
-19 -6 -10 -18 -17 -25 -14 -7 3 -13 0 -13 -6 0 -6 -6 -11 -13 -11 -7 0 -23
-9 -35 -20 -12 -11 -27 -20 -34 -20 -7 0 -19 -9 -26 -21 -7 -11 -18 -19 -24
-17 -6 2 -32 -18 -57 -44 -25 -26 -51 -48 -56 -48 -6 0 -24 -13 -40 -30 -15
-16 -32 -27 -36 -24 -4 2 -10 -5 -14 -16 -3 -11 -11 -20 -17 -20 -14 0 -78
-65 -78 -80 0 -5 -5 -10 -11 -10 -12 0 -44 -30 -44 -42 0 -4 -30 -39 -68 -76
-37 -38 -65 -71 -62 -74 3 -2 -4 -13 -15 -23 -11 -10 -20 -24 -20 -31 0 -7
-13 -23 -29 -37 -17 -14 -27 -27 -24 -31 3 -3 -4 -14 -15 -25 -12 -10 -22 -25
-22 -32 0 -8 -9 -21 -20 -29 -11 -8 -20 -22 -20 -32 0 -10 -5 -18 -10 -18 -6
0 -15 -11 -20 -25 -5 -14 -14 -25 -20 -25 -6 0 -8 -5 -5 -11 4 -6 -1 -20 -12
-32 -25 -29 -48 -75 -41 -83 3 -3 -5 -17 -17 -30 -13 -14 -22 -31 -19 -38 2
-6 -6 -23 -18 -36 -13 -13 -21 -32 -20 -42 4 -21 -19 -78 -30 -78 -5 0 -8 -9
-8 -20 0 -11 -4 -20 -10 -20 -5 0 -9 -10 -8 -23 2 -26 -20 -87 -32 -87 -4 0
-6 -17 -4 -37 1 -21 -3 -44 -9 -52 -6 -7 -10 -26 -9 -42 2 -16 -1 -29 -7 -29
-6 0 -11 -11 -11 -24 0 -14 -4 -27 -8 -30 -5 -3 -10 -33 -11 -68 -1 -34 -6
-65 -11 -68 -6 -4 -8 -20 -6 -38 2 -17 -2 -33 -8 -35 -16 -5 -16 -578 0 -584
6 -2 10 -18 8 -35 -2 -18 1 -35 8 -39 7 -4 10 -31 9 -68 -1 -40 2 -61 10 -61
7 0 9 -10 7 -24 -3 -16 0 -27 9 -30 8 -3 12 -18 11 -35 -1 -16 3 -35 9 -43 6
-7 10 -26 9 -43 -2 -30 10 -64 28 -77 5 -3 9 -22 9 -42 0 -20 4 -36 9 -36 4 0
8 -9 8 -20 0 -11 3 -20 8 -20 11 0 34 -57 30 -78 -1 -10 7 -29 20 -42 12 -13
20 -30 18 -36 -3 -7 6 -24 19 -38 15 -16 21 -33 18 -46 -4 -14 -1 -20 11 -20
10 0 14 -5 11 -11 -4 -6 3 -21 15 -34 12 -13 20 -30 17 -38 -3 -8 8 -24 24
-38 16 -13 29 -30 29 -38 0 -7 9 -21 19 -30 10 -9 21 -28 23 -41 1 -14 10 -25
18 -25 8 0 15 -7 15 -15 0 -8 12 -26 27 -38 16 -13 28 -29 28 -36 0 -7 9 -21
20 -31 11 -10 18 -20 15 -23 -2 -2 18 -27 45 -55 28 -28 50 -57 50 -64 0 -7 7
-13 15 -13 18 0 74 -59 75 -77 0 -7 6 -13 13 -13 7 0 56 -42 109 -93 95 -92
147 -134 160 -130 4 2 18 -11 32 -27 13 -17 31 -30 40 -30 8 0 22 -10 31 -22
8 -13 18 -22 20 -20 3 1 14 2 26 2 15 0 19 -5 15 -15 -3 -9 1 -16 9 -16 31 -3
81 -24 89 -38 6 -10 92 -53 109 -55 4 -1 12 -8 17 -16 5 -8 10 -11 10 -7 0 5
16 0 36 -12 19 -12 44 -21 55 -21 10 0 19 -4 19 -10 0 -5 7 -10 15 -10 8 0 15
-4 15 -8 0 -5 18 -9 41 -9 24 0 45 -6 50 -14 5 -8 9 -10 9 -5 0 5 11 -1 24
-13 17 -16 37 -23 62 -23 21 0 43 -6 51 -13 7 -7 22 -11 33 -8 11 3 20 0 20
-6 0 -6 19 -10 50 -8 34 1 51 -2 55 -11 3 -8 11 -12 18 -9 6 2 23 -1 37 -8 14
-7 50 -11 80 -10 30 1 61 -3 68 -9 19 -14 561 -14 572 0 5 5 39 9 75 9 42 -1
69 3 76 11 6 7 17 10 26 7 8 -3 18 -1 22 6 5 7 30 12 59 13 29 0 52 4 52 9 0
5 9 9 20 9 11 0 20 4 20 9 0 5 25 8 55 7 47 -1 56 2 66 22 7 12 18 21 25 18 7
-3 14 -1 16 4 2 4 19 10 38 11 19 2 41 12 48 21 7 10 26 18 43 18 29 0 68 16
81 35 4 6 8 6 8 1 0 -4 11 -1 25 8 14 9 25 13 25 9 0 -5 5 0 11 10 6 9 14 15
18 12 5 -2 14 2 21 10 6 7 19 11 27 8 10 -4 14 -2 10 4 -4 7 6 17 23 25 16 7
30 17 30 21 0 5 4 6 9 3 5 -3 20 5 35 19 14 13 32 22 39 19 7 -2 28 9 45 26
18 16 37 30 44 30 7 1 27 18 43 39 17 21 35 36 40 34 6 -2 24 10 40 27 16 16
34 30 41 30 7 0 19 9 27 20 8 11 17 17 20 13 4 -3 7 -2 7 4 0 5 53 63 118 128
64 65 116 123 114 128 -1 5 7 11 18 14 18 5 24 15 21 36 0 4 4 7 9 7 6 0 10 6
10 14 0 8 9 21 20 29 11 8 17 16 14 20 -3 3 6 13 20 22 14 10 24 21 21 25 -3
5 8 20 25 33 16 14 30 31 30 38 0 6 9 20 21 30 11 10 19 26 17 36 -2 10 6 26
19 36 13 10 21 22 19 25 -2 4 9 26 25 50 16 23 29 52 29 62 0 11 4 20 8 20 11
0 47 62 47 81 0 9 9 27 20 39 11 12 19 32 17 44 -2 12 7 34 19 50 14 18 20 36
17 57 -3 17 1 34 9 40 7 6 13 16 13 22 0 6 8 19 17 29 11 13 17 37 17 71 1 29
5 59 11 67 5 8 8 23 7 33 -2 9 2 17 7 17 7 0 11 23 11 54 0 30 4 58 10 61 6 3
10 19 10 34 0 15 3 31 8 35 4 4 7 59 8 123 1 63 5 118 11 121 13 9 11 194 -2
199 -6 2 -10 57 -9 133 1 71 -2 127 -6 125 -11 -7 -21 46 -27 133 -2 39 -9 72
-14 72 -5 0 -9 9 -9 20 0 11 -4 20 -9 20 -4 0 -8 28 -8 61 0 45 -4 65 -16 74
-9 6 -17 18 -19 25 -2 8 -8 20 -14 27 -6 6 -10 26 -8 43 3 21 -3 38 -16 52
-11 12 -19 31 -18 42 0 12 -7 35 -16 51 -9 17 -16 36 -16 43 0 7 -7 15 -16 19
-8 3 -13 11 -10 18 2 6 -4 18 -15 26 -10 7 -19 21 -19 31 0 9 -13 37 -29 60
-16 24 -28 46 -25 49 2 3 -7 16 -20 28 -15 14 -22 30 -19 42 3 10 0 19 -6 19
-6 0 -17 12 -24 28 -6 15 -22 36 -34 48 -12 11 -23 26 -25 33 -2 8 -20 31 -40
52 -21 20 -38 41 -38 46 0 5 -20 29 -45 53 -25 24 -45 49 -45 54 0 20 -264
276 -284 276 -11 0 -16 3 -13 7 10 9 -31 35 -43 28 -6 -3 -10 -1 -10 5 0 15
-80 90 -97 90 -7 0 -13 4 -13 8 0 5 -18 18 -40 31 -22 12 -40 19 -40 14 0 -4
-7 3 -16 15 -8 12 -25 22 -38 22 -13 0 -30 8 -39 18 -9 10 -32 24 -52 32 -19
8 -35 17 -35 22 0 4 -6 5 -14 2 -7 -3 -16 2 -20 11 -3 9 -11 13 -17 9 -6 -3
-23 3 -38 14 -15 11 -41 22 -57 24 -16 1 -38 11 -48 21 -11 9 -26 17 -33 17
-7 0 -13 4 -13 9 0 6 -12 9 -27 7 -17 -1 -39 7 -55 20 -19 15 -37 21 -54 18
-14 -3 -33 1 -41 8 -8 7 -28 11 -43 10 -16 -1 -31 2 -35 8 -3 5 -22 10 -41 10
-19 0 -34 5 -34 10 0 6 -20 10 -45 10 -25 0 -45 4 -45 9 0 4 -10 7 -22 7 -13
-1 -32 2 -43 8 -27 14 -674 15 -689 1z m586 -330 c4 -5 15 -10 25 -10 10 -1
27 -6 38 -12 11 -5 26 -8 32 -6 7 3 16 -2 19 -11 3 -8 12 -12 19 -10 7 3 28
-3 47 -13 18 -10 44 -18 59 -18 14 0 35 -10 48 -22 14 -13 32 -20 46 -17 13 2
27 0 30 -6 3 -5 15 -10 25 -10 10 0 22 -9 25 -20 4 -14 15 -20 35 -20 16 0 35
-8 42 -17 7 -10 20 -19 28 -21 8 -2 18 -8 21 -14 4 -6 11 -8 17 -4 6 3 14 0
19 -8 4 -8 12 -14 16 -14 5 0 22 -12 38 -27 17 -14 38 -25 47 -23 9 2 30 -11
45 -29 16 -18 33 -31 37 -28 5 3 11 -4 15 -15 3 -11 11 -20 16 -20 6 0 24 -13
42 -30 18 -16 38 -30 45 -30 7 0 15 -6 18 -14 3 -8 16 -17 29 -20 16 -4 22
-11 19 -21 -4 -10 0 -15 11 -15 21 0 46 -25 43 -42 -2 -7 5 -12 14 -12 10 1
20 -7 24 -18 8 -27 60 -78 79 -78 9 0 15 -6 12 -12 -2 -7 3 -20 12 -28 9 -8
22 -27 30 -42 8 -15 22 -30 33 -34 10 -3 18 -15 18 -27 0 -12 9 -28 20 -35 12
-7 18 -17 15 -22 -3 -5 3 -15 14 -22 10 -7 21 -22 23 -33 1 -11 9 -26 16 -33
7 -8 10 -17 7 -22 -3 -4 5 -6 16 -3 19 5 21 3 17 -20 -4 -18 2 -37 18 -58 13
-18 21 -36 18 -40 -3 -5 1 -9 9 -9 11 0 13 -7 9 -22 -3 -14 -2 -19 6 -14 7 4
12 1 12 -9 0 -19 20 -55 42 -75 10 -10 15 -29 14 -53 -2 -27 3 -42 20 -58 13
-12 21 -26 18 -31 -3 -4 1 -11 9 -13 10 -4 12 -20 9 -59 -4 -48 -2 -55 17 -61
19 -6 21 -13 18 -71 -1 -35 2 -65 7 -67 5 -2 10 -13 11 -24 0 -12 6 -27 12
-35 5 -7 9 -42 8 -77 0 -36 3 -65 9 -67 9 -4 12 -96 7 -204 -1 -14 -31 -16
-231 -16 l-229 0 3 29 c2 15 -2 33 -8 40 -8 8 -11 51 -11 122 1 96 -2 115 -20
145 -12 19 -20 40 -18 47 2 6 -1 14 -6 18 -6 3 -11 24 -11 46 0 26 -7 47 -20
62 -13 14 -19 30 -16 43 4 14 -3 29 -19 44 -14 13 -23 30 -21 37 3 7 1 13 -4
13 -6 0 -10 6 -10 13 0 8 -9 22 -20 32 -11 10 -20 24 -20 31 0 7 -9 20 -21 28
-12 8 -18 19 -15 25 4 5 -2 14 -11 20 -10 6 -15 11 -11 11 11 0 -42 75 -53 75
-5 0 -9 5 -10 10 -2 20 -20 45 -32 45 -7 0 -18 9 -25 20 -7 11 -19 20 -27 20
-8 0 -15 7 -15 15 0 17 -98 115 -114 115 -6 0 -21 12 -33 26 -13 16 -33 27
-48 27 -18 0 -25 5 -25 18 0 11 -4 19 -10 19 -25 0 -6 60 34 107 10 12 15 26
12 32 -4 6 7 24 24 41 17 17 32 41 33 53 1 12 9 28 19 35 10 7 16 17 13 22 -3
4 2 13 10 20 8 7 13 16 10 20 -3 5 6 17 20 28 13 11 22 22 19 25 -3 3 0 14 7
25 10 17 10 23 0 36 -8 9 -19 16 -26 16 -6 0 -20 9 -30 20 -10 11 -27 20 -37
20 -10 0 -28 9 -40 20 -12 10 -24 17 -28 15 -5 -3 -10 2 -14 10 -3 9 -12 12
-21 9 -10 -4 -27 3 -43 19 -17 17 -32 23 -40 18 -15 -9 -62 -2 -62 9 0 9 -33
20 -72 25 -14 2 -35 8 -46 14 -11 6 -27 8 -35 6 -7 -3 -19 1 -26 9 -6 7 -21
12 -31 9 -11 -3 -22 1 -25 8 -4 11 -28 13 -100 12 -53 -2 -97 2 -100 7 -3 6
-21 10 -40 10 -19 0 -37 5 -40 10 -8 13 -193 12 -201 -1 -3 -5 -21 -9 -40 -9
-19 0 -34 -4 -34 -9 0 -5 -46 -9 -104 -9 -57 0 -110 -3 -117 -8 -8 -5 -27 -9
-43 -10 -15 -1 -31 -7 -35 -13 -4 -6 -15 -9 -24 -5 -10 4 -19 0 -22 -9 -4 -9
-17 -14 -38 -12 -21 2 -37 -3 -49 -17 -12 -14 -25 -19 -43 -16 -14 3 -28 1
-31 -4 -7 -10 -49 -29 -79 -35 -11 -2 -22 -8 -23 -13 -2 -6 -7 -8 -12 -5 -4 2
-19 -6 -33 -19 -17 -15 -33 -22 -49 -19 -16 3 -31 -3 -46 -20 -30 -32 -34 -71
-11 -96 11 -11 19 -24 19 -29 0 -5 7 -15 15 -22 9 -7 23 -29 32 -49 9 -20 24
-43 33 -51 9 -8 16 -25 15 -37 -1 -13 2 -23 6 -23 5 0 18 -19 30 -41 11 -23
29 -51 40 -62 26 -28 25 -67 -1 -67 -10 0 -23 -6 -27 -14 -4 -8 -15 -16 -23
-18 -8 -2 -17 -6 -20 -10 -3 -3 -11 -8 -19 -10 -8 -2 -30 -20 -48 -40 -19 -21
-38 -37 -41 -37 -22 3 -30 -3 -25 -21 3 -12 2 -20 -3 -19 -20 3 -34 -2 -34
-12 0 -6 -34 -45 -75 -86 -41 -42 -75 -82 -75 -89 0 -7 -8 -18 -19 -23 -12 -7
-17 -19 -16 -36 2 -17 -2 -25 -12 -25 -21 0 -43 -25 -43 -51 0 -12 -8 -27 -17
-34 -9 -7 -18 -23 -20 -36 -2 -13 -11 -31 -21 -39 -9 -8 -16 -25 -14 -37 2
-13 -1 -23 -7 -23 -6 0 -11 -9 -11 -20 0 -11 -3 -20 -8 -20 -13 0 -33 -58 -30
-87 2 -18 -5 -36 -18 -50 -15 -17 -20 -34 -19 -70 1 -26 -3 -57 -9 -68 -7 -11
-11 -58 -10 -108 1 -66 -3 -90 -14 -100 -11 -8 -73 -12 -221 -12 -121 -1 -213
-5 -224 -11 -16 -9 -18 -27 -20 -151 -1 -105 2 -145 12 -157 7 -9 10 -16 6
-16 -4 0 -1 -10 7 -22 8 -13 14 -40 13 -61 -1 -24 4 -41 12 -44 8 -3 11 -15 8
-33 -3 -16 -1 -32 5 -35 5 -3 10 -17 10 -30 0 -13 5 -27 10 -30 6 -3 10 -20
10 -37 0 -19 8 -38 21 -49 12 -10 19 -25 16 -32 -3 -8 1 -26 8 -41 8 -14 11
-26 8 -26 -4 0 3 -9 15 -20 19 -18 24 -32 21 -56 0 -4 3 -10 8 -13 13 -10 33
-49 33 -66 0 -8 5 -15 10 -15 6 0 10 -6 10 -13 0 -7 9 -23 20 -35 12 -12 18
-22 15 -22 -3 0 3 -10 15 -22 11 -12 20 -28 20 -35 0 -7 4 -13 8 -13 5 0 15
-12 23 -27 8 -16 24 -37 37 -49 13 -11 24 -27 26 -35 1 -8 77 -89 170 -181
124 -124 174 -168 192 -168 17 0 24 -6 24 -20 0 -13 7 -20 20 -20 11 0 20 -5
20 -12 0 -6 3 -8 7 -5 3 4 16 -2 27 -12 12 -11 37 -27 56 -35 31 -13 37 -12
55 2 11 10 19 25 17 35 -2 10 5 26 15 35 10 9 27 36 37 60 11 23 23 42 28 42
4 0 8 7 8 15 0 8 5 15 10 15 6 0 10 9 10 20 0 11 7 23 15 26 8 4 13 10 10 15
-6 9 12 44 38 71 10 10 15 23 12 27 -13 22 25 16 63 -10 24 -16 49 -29 58 -29
8 0 24 -8 35 -19 13 -12 36 -19 61 -19 29 -1 44 -7 55 -22 8 -11 18 -18 23
-15 4 3 13 -1 18 -8 7 -8 32 -12 67 -11 30 1 55 -2 55 -7 0 -5 8 -9 18 -9 10
0 23 -5 28 -10 11 -11 105 -16 120 -8 5 3 18 2 29 -2 11 -4 30 -4 43 1 15 6
22 5 23 -4 0 -6 2 -7 5 -2 4 10 123 11 149 1 8 -3 21 2 30 10 9 9 22 14 30 11
7 -3 18 0 24 7 7 8 31 12 63 11 50 -1 108 19 108 38 0 5 5 5 10 2 6 -4 17 -1
25 5 8 7 36 12 62 13 35 0 52 5 62 19 7 11 19 17 27 14 8 -3 14 -2 14 3 0 5
23 20 50 33 32 16 50 21 50 13 0 -7 11 -21 25 -31 15 -11 25 -29 25 -44 0 -15
9 -31 20 -38 12 -7 18 -17 15 -22 -3 -5 3 -15 13 -22 10 -7 24 -29 32 -48 8
-19 22 -44 32 -54 10 -11 18 -26 18 -33 0 -7 5 -13 10 -13 6 0 10 -9 10 -19 0
-10 7 -21 15 -25 8 -3 15 -12 15 -19 0 -8 9 -22 20 -32 14 -13 20 -31 20 -62
0 -40 -6 -48 -32 -44 -5 0 -8 -4 -8 -9 0 -6 -6 -10 -13 -10 -8 0 -22 -9 -32
-20 -10 -11 -23 -20 -29 -20 -7 0 -18 -9 -25 -19 -8 -11 -20 -17 -26 -15 -7 3
-15 -2 -19 -11 -3 -9 -11 -13 -16 -10 -6 4 -20 -3 -30 -15 -11 -12 -26 -20
-34 -17 -7 3 -24 -5 -36 -18 -13 -14 -30 -22 -42 -20 -10 2 -21 -2 -25 -10 -3
-8 -9 -12 -14 -9 -5 3 -22 -4 -38 -15 -16 -12 -35 -21 -43 -21 -18 0 -68 -23
-68 -32 0 -3 -14 -5 -31 -4 -17 1 -37 -4 -45 -11 -8 -8 -18 -12 -23 -9 -5 3
-11 0 -14 -8 -3 -8 -20 -12 -48 -11 -24 1 -58 -4 -76 -12 -18 -7 -33 -10 -33
-7 0 4 -7 1 -15 -6 -17 -14 -75 -20 -75 -7 0 4 -5 5 -11 2 -16 -11 -69 -12
-69 -3 0 5 -8 5 -17 1 -23 -11 -54 -10 -73 2 -8 5 -46 10 -83 11 -37 1 -75 6
-85 10 -9 4 -50 8 -90 8 -50 1 -76 6 -81 15 -5 7 -13 11 -19 7 -6 -3 -12 -1
-14 5 -2 6 -22 12 -45 13 -23 0 -45 4 -49 8 -4 5 -18 8 -31 8 -12 0 -23 5 -23
10 0 6 -18 10 -40 10 -22 0 -40 4 -40 9 0 7 -14 13 -48 21 -4 1 -14 7 -22 15
-8 7 -30 12 -49 10 -26 -2 -35 1 -38 16 -3 10 -13 19 -22 19 -25 0 -153 67
-164 85 -4 8 -13 13 -18 9 -6 -3 -18 4 -28 15 -10 12 -26 21 -35 21 -9 0 -16
5 -16 10 0 6 -6 10 -13 10 -8 0 -22 9 -32 20 -10 12 -25 18 -32 16 -7 -3 -13
-1 -13 4 0 12 -82 89 -95 90 -5 0 -29 20 -53 45 -24 25 -47 45 -53 45 -13 0
-75 61 -72 71 2 4 -31 41 -72 82 -41 41 -75 78 -75 84 0 5 -9 18 -20 28 -11
10 -20 23 -20 30 0 6 -13 24 -30 40 -16 15 -27 32 -24 36 3 5 -4 14 -16 21
-11 7 -20 23 -20 36 0 14 -13 36 -31 53 -18 16 -29 36 -27 46 2 10 -7 26 -20
37 -15 12 -21 24 -17 37 4 12 -1 22 -14 31 -13 8 -21 23 -21 40 0 16 -4 28
-10 28 -5 0 -10 7 -10 16 0 9 -7 22 -17 29 -10 7 -16 27 -17 51 -1 23 -9 48
-21 62 -13 15 -19 36 -18 62 1 22 -2 40 -5 40 -8 0 -32 72 -32 95 0 8 -4 15
-8 15 -5 0 -9 22 -9 49 -1 26 -6 58 -12 69 -6 11 -9 34 -7 51 2 17 -2 32 -8
34 -15 5 -17 534 -1 562 6 11 11 31 10 45 0 14 3 28 8 31 5 4 11 29 13 55 4
65 14 114 24 114 8 0 14 27 26 105 4 22 14 47 23 55 10 9 16 30 16 54 0 26 5
42 17 50 10 6 18 19 18 28 0 10 5 18 10 18 6 0 10 11 10 25 0 13 10 33 22 45
12 11 19 23 15 26 -3 4 -1 16 5 28 7 11 12 25 13 29 0 5 8 14 18 21 9 7 17 19
17 25 0 7 9 21 20 33 11 12 20 31 20 41 0 11 9 28 21 38 11 10 19 22 16 26 -3
5 8 19 24 32 16 13 29 27 29 32 0 16 51 83 105 138 30 31 54 60 52 64 -1 5 9
15 23 22 14 7 25 19 25 27 1 7 6 12 12 11 5 -1 43 31 84 72 41 41 82 75 92 75
10 0 16 4 13 9 -3 5 9 16 27 25 17 8 50 34 71 56 22 22 48 40 58 40 10 0 26 8
36 18 17 17 41 30 60 32 4 1 14 8 23 16 9 8 19 11 22 8 4 -4 9 1 13 10 3 9 10
14 14 11 5 -3 24 4 42 15 18 11 43 20 56 20 12 0 25 7 28 15 8 20 60 45 85 40
12 -3 31 5 46 19 17 16 34 22 54 20 16 -2 29 1 29 6 0 6 11 10 25 10 14 0 25
4 25 10 0 6 18 9 41 7 26 -2 46 2 55 10 8 8 14 12 14 9 0 -4 15 0 33 7 17 7
46 13 62 12 17 0 35 4 41 10 14 14 556 14 566 0z m-107 -995 c4 -6 12 -9 18
-8 7 1 21 -3 32 -9 11 -6 46 -10 78 -9 43 1 63 -3 77 -16 11 -10 27 -20 37
-21 30 -6 57 -20 78 -39 10 -10 25 -16 32 -14 7 3 24 -6 38 -20 14 -14 29 -23
34 -20 5 3 12 -1 15 -10 3 -8 10 -13 15 -10 5 3 26 -11 47 -32 20 -20 41 -36
45 -35 9 3 154 -144 154 -156 0 -5 13 -21 28 -35 15 -14 26 -30 22 -35 -3 -5
3 -16 14 -23 11 -8 21 -20 23 -28 2 -8 11 -22 21 -31 9 -9 17 -25 17 -36 0
-11 9 -28 20 -38 12 -11 20 -31 20 -52 0 -18 4 -33 10 -33 5 0 7 -6 4 -14 -3
-7 2 -16 11 -20 9 -3 14 -10 11 -15 -3 -5 0 -13 7 -19 8 -7 12 -36 11 -84 0
-40 3 -78 8 -85 5 -6 10 -30 11 -52 1 -23 5 -41 9 -41 4 0 8 -25 8 -55 0 -30
-4 -55 -10 -55 -5 0 -8 -15 -5 -35 2 -20 -1 -40 -8 -47 -8 -8 -13 -39 -12 -82
0 -55 -5 -79 -23 -113 -12 -24 -19 -43 -15 -43 5 0 3 -4 -4 -8 -7 -4 -13 -22
-15 -40 -1 -18 -10 -40 -20 -49 -10 -9 -18 -26 -18 -39 0 -13 -9 -28 -20 -34
-11 -6 -18 -15 -15 -20 3 -5 -3 -17 -15 -27 -11 -10 -20 -22 -20 -28 0 -6 -14
-24 -30 -40 -17 -16 -29 -33 -27 -38 3 -11 -135 -147 -150 -147 -5 0 -18 -9
-28 -20 -10 -11 -24 -20 -32 -20 -8 0 -12 -4 -9 -9 7 -11 -18 -33 -27 -24 -4
3 -9 -1 -13 -10 -3 -9 -12 -13 -20 -10 -8 3 -14 0 -14 -6 0 -6 -6 -11 -14 -11
-7 0 -27 -13 -44 -29 -16 -16 -39 -28 -49 -27 -10 2 -27 -1 -38 -7 -11 -6 -22
-12 -25 -12 -15 -3 -60 -29 -60 -34 0 -3 -22 -4 -50 -3 -32 3 -50 0 -50 -7 0
-6 -13 -11 -30 -11 -16 0 -30 -4 -30 -10 0 -6 -60 -9 -155 -9 -86 0 -155 5
-155 10 0 5 -13 9 -30 9 -16 0 -30 5 -30 11 0 7 -21 9 -60 7 -45 -3 -61 0 -65
10 -3 8 -8 12 -12 8 -4 -3 -17 3 -29 15 -13 12 -37 23 -55 24 -18 2 -38 10
-44 19 -7 9 -18 16 -25 16 -13 0 -73 40 -78 52 -2 5 -7 6 -12 3 -4 -2 -15 4
-25 15 -10 11 -23 20 -30 20 -6 0 -24 14 -40 30 -16 16 -35 30 -42 30 -7 0
-13 6 -13 14 0 7 -18 30 -40 50 -22 20 -37 36 -33 36 4 0 -3 7 -15 16 -12 8
-22 21 -22 29 0 8 -8 20 -17 27 -30 22 -53 54 -58 79 -3 13 -11 29 -18 34 -7
6 -20 26 -30 46 -9 20 -23 41 -30 47 -7 6 -13 29 -12 53 1 32 -4 44 -20 55
-18 12 -21 22 -19 74 1 33 -2 60 -7 60 -5 0 -9 20 -9 44 0 25 -4 48 -10 51
-12 7 -14 212 -2 219 4 2 9 24 11 48 1 23 5 45 9 48 5 3 8 31 9 64 1 32 5 61
11 65 18 12 30 46 27 78 -1 19 3 34 11 37 7 3 20 22 30 43 10 21 22 41 27 44
5 4 7 11 3 17 -3 6 -2 12 3 14 5 1 11 10 13 18 2 8 11 22 20 31 9 8 18 21 20
29 4 18 223 232 254 248 13 7 24 17 24 23 0 6 7 8 15 5 9 -3 18 1 21 9 4 8 10
12 15 10 5 -3 16 3 26 15 10 11 24 20 33 20 8 0 21 9 28 21 7 12 16 18 19 15
4 -3 14 1 24 10 9 8 28 14 41 12 13 -2 32 6 44 17 17 17 32 21 84 19 42 -1 68
2 77 12 7 7 20 11 27 8 8 -3 17 -1 21 5 8 14 271 15 280 1z"/>
</g>
</svg>
